<svg class="thumb" width="431" height="256" viewBox="0,0,431,256" xmlns="http://www.w3.org/2000/svg" xmlns:inkscape="http://www.inkscape.org/namespaces/inkscape" xmlns:sodipodi="http://sodipodi.sourceforge.net/DTD/sodipodi-0.dtd" xmlns:xlink="http://www.w3.org/1999/xlink" xmlns:ns1="http://www.inkscape.org/namespaces/inkscape" xmlns:sketch="http://www.bohemiancoding.com/sketch/ns"><defs></defs><g><g transform="matrix(0.5,0,0,0.5,45.25,139.5)"><svg width="683" height="296" style="overflow: visible;"><defs><linearGradient x1="0" y1="0.5" x2="1" y2="0.5" id="linearGradientSjrp0xo66u2"><stop offset="0%" stop-color="#164e87"></stop><stop offset="100%" stop-color="#164e87"></stop></linearGradient></defs><g><path d="M-282.34999999999997 0.5Q-294.25 0.5 -303.04999999999995-3.85Q-311.84999999999997-8.2 -316.54999999999995-16.2Q-321.25-24.2 -321.25-34.8L-321.25-34.8Q-321.25-49.5 -315.7-60.9Q-310.15-72.3 -300.65-78.55Q-291.15-84.8 -279.54999999999995-84.8L-279.54999999999995-84.8Q-268.75-84.8 -263.15-79.25Q-257.54999999999995-73.7 -257.54999999999995-64.6L-257.54999999999995-64.6Q-257.54999999999995-58.5 -259.7-54.8Q-261.84999999999997-51.1 -265.84999999999997-51.1L-265.84999999999997-51.1Q-268.65-51.1 -270.25-52.4Q-271.84999999999997-53.7 -271.84999999999997-56.2L-271.84999999999997-56.2Q-271.84999999999997-57.1 -271.45-59.5L-271.45-59.5Q-270.84999999999997-62.5 -270.84999999999997-64.3L-270.84999999999997-64.3Q-270.84999999999997-73.4 -280.54999999999995-73.4L-280.54999999999995-73.4Q-287.15-73.4 -293.15-69.1Q-299.15-64.8 -302.84999999999997-56.45Q-306.54999999999995-48.1 -306.54999999999995-36.6L-306.54999999999995-36.6Q-306.54999999999995-24.6 -299.84999999999997-18.05Q-293.15-11.5 -280.04999999999995-11.5L-280.04999999999995-11.5Q-273.54999999999995-11.5 -266.9-13.15Q-260.25-14.8 -252.14999999999998-18.2L-252.14999999999998-18.2Q-250.64999999999998-18.8 -249.64999999999998-18.8L-249.64999999999998-18.8Q-248.04999999999998-18.8 -247.24999999999997-17.6Q-246.45-16.4 -246.45-14.5L-246.45-14.5Q-246.45-8.4 -253.04999999999998-5.5L-253.04999999999998-5.5Q-260.15-2.4 -267.79999999999995-0.95Q-275.45 0.5 -282.34999999999997 0.5L-282.34999999999997 0.5ZM-204.24999999999994-30.7Q-202.94999999999996-30.7 -202.24999999999994-29.4Q-201.54999999999995-28.1 -201.54999999999995-26.1L-201.54999999999995-26.1Q-201.54999999999995-21.3 -204.44999999999996-20.4L-204.44999999999996-20.4Q-210.44999999999996-18.3 -217.64999999999995-18L-217.64999999999995-18Q-219.54999999999995-9.6 -225.14999999999995-4.55Q-230.74999999999994 0.5 -237.84999999999997 0.5L-237.84999999999997 0.5Q-243.84999999999997 0.5 -248.09999999999997-2.4Q-252.34999999999997-5.3 -254.54999999999995-10.1Q-256.74999999999994-14.9 -256.74999999999994-20.5L-256.74999999999994-20.5Q-256.74999999999994-28.1 -253.84999999999997-34.05Q-250.94999999999996-40 -245.84999999999997-43.35Q-240.74999999999994-46.7 -234.54999999999995-46.7L-234.54999999999995-46.7Q-226.94999999999996-46.7 -222.29999999999995-41.45Q-217.64999999999995-36.2 -216.84999999999997-28.5L-216.84999999999997-28.5Q-212.14999999999995-28.8 -205.64999999999995-30.5L-205.64999999999995-30.5Q-204.84999999999997-30.7 -204.24999999999994-30.7L-204.24999999999994-30.7ZM-237.04999999999995-10.1Q-233.84999999999997-10.1 -231.49999999999994-12.7Q-229.14999999999995-15.3 -228.34999999999997-20.2L-228.34999999999997-20.2Q-231.44999999999996-22.3 -233.09999999999997-25.7Q-234.74999999999994-29.1 -234.74999999999994-32.9L-234.74999999999994-32.9Q-234.74999999999994-34.5 -234.44999999999996-36.1L-234.44999999999996-36.1L-234.94999999999996-36.1Q-238.94999999999996-36.1 -241.59999999999997-32.25Q-244.24999999999994-28.4 -244.24999999999994-21.4L-244.24999999999994-21.4Q-244.24999999999994-15.9 -242.09999999999997-13Q-239.94999999999996-10.1 -237.04999999999995-10.1L-237.04999999999995-10.1ZM-203.04999999999998 0.5Q-206.85 0.5 -208.39999999999998-3.5Q-209.95-7.5 -209.95-16.3L-209.95-16.3Q-209.95-29.3 -206.25-41L-206.25-41Q-205.35-43.9 -203.29999999999998-45.25Q-201.25-46.6 -197.54999999999998-46.6L-197.54999999999998-46.6Q-195.54999999999998-46.6 -194.75-46.1Q-193.95-45.6 -193.95-44.2L-193.95-44.2Q-193.95-42.6 -195.45-37L-195.45-37Q-196.45-33 -197.04999999999998-30.05Q-197.64999999999998-27.1 -198.04999999999998-22.7L-198.04999999999998-22.7Q-195.35-30.5 -191.6-35.9Q-187.85-41.3 -183.89999999999998-43.95Q-179.95-46.6 -176.45-46.6L-176.45-46.6Q-172.95-46.6 -171.5-45Q-170.04999999999998-43.4 -170.04999999999998-40.1L-170.04999999999998-40.1Q-170.04999999999998-36.9 -171.95-28.5L-171.95-28.5Q-172.75-24.9 -173.04999999999998-23.1L-173.04999999999998-23.1Q-168.04999999999998-35.4 -161.95-41Q-155.85-46.6 -150.54999999999998-46.6L-150.54999999999998-46.6Q-144.04999999999998-46.6 -144.04999999999998-40.1L-144.04999999999998-40.1Q-144.04999999999998-36.2 -146.25-26L-146.25-26Q-148.14999999999998-17.3 -148.14999999999998-14.5L-148.14999999999998-14.5Q-148.14999999999998-10.5 -145.25-10.5L-145.25-10.5Q-143.25-10.5 -140.5-12.95Q-137.75-15.4 -133.14999999999998-20.9L-133.14999999999998-20.9Q-131.95-22.3 -130.45-22.3L-130.45-22.3Q-129.14999999999998-22.3 -128.39999999999998-21.1Q-127.64999999999999-19.9 -127.64999999999999-17.8L-127.64999999999999-17.8Q-127.64999999999999-13.8 -129.54999999999998-11.6L-129.54999999999998-11.6Q-133.85-6.3 -138.79999999999998-2.9Q-143.75 0.5 -150.04999999999998 0.5L-150.04999999999998 0.5Q-155.14999999999998 0.5 -157.75-2.45Q-160.35-5.4 -160.35-11L-160.35-11Q-160.35-13.8 -158.95-21L-158.95-21Q-157.64999999999998-27.3 -157.64999999999998-29.7L-157.64999999999998-29.7Q-157.64999999999998-31.3 -158.75-31.3L-158.75-31.3Q-160.04999999999998-31.3 -162.45-27.95Q-164.85-24.6 -167.25-19.1Q-169.64999999999998-13.6 -171.14999999999998-7.5L-171.14999999999998-7.5Q-172.25-2.7 -173.7-1.1Q-175.14999999999998 0.5 -178.35 0.5L-178.35 0.5Q-181.64999999999998 0.5 -183.29999999999998-2.65Q-184.95-5.8 -184.95-10.3L-184.95-10.3Q-184.95-14.1 -183.95-21.3L-183.95-21.3Q-183.14999999999998-27.7 -183.14999999999998-29.7L-183.14999999999998-29.7Q-183.14999999999998-31.3 -184.25-31.3L-184.25-31.3Q-185.75-31.3 -188.04999999999998-27.7Q-190.35-24.1 -192.5-18.5Q-194.64999999999998-12.9 -195.95-7.5L-195.95-7.5Q-197.04999999999998-2.8 -198.5-1.15Q-199.95 0.5 -203.04999999999998 0.5L-203.04999999999998 0.5ZM-82.34999999999995-22.3Q-81.04999999999995-22.3 -80.29999999999995-21.1Q-79.54999999999995-19.9 -79.54999999999995-17.8L-79.54999999999995-17.8Q-79.54999999999995-13.8 -81.44999999999996-11.6L-81.44999999999996-11.6Q-85.74999999999996-6.3 -90.69999999999996-2.9Q-95.64999999999995 0.5 -101.94999999999996 0.5L-101.94999999999996 0.5Q-107.24999999999996 0.5 -110.54999999999995-3.3L-110.54999999999995-3.3Q-116.24999999999996 0.4 -122.44999999999996 0.5L-122.44999999999996 0.5Q-123.74999999999996 19.8 -128.34999999999997 32.75Q-132.94999999999996 45.7-141.84999999999997 45.7L-141.84999999999997 45.7Q-147.24999999999994 45.7-149.84999999999997 41.8Q-152.44999999999996 37.9-152.44999999999996 31L-152.44999999999996 31Q-152.44999999999996 21.2-147.94999999999996 8.15Q-143.44999999999996-4.9 -134.04999999999995-20.6L-134.04999999999995-20.6Q-134.04999999999995-35.2 -134.24999999999994-40.9L-134.24999999999994-40.9Q-134.34999999999997-43.8 -131.94999999999996-45.5Q-129.54999999999995-47.2 -125.94999999999996-47.2L-125.94999999999996-47.2Q-123.84999999999995-47.2 -122.89999999999995-46.35Q-121.94999999999996-45.5 -121.84999999999995-43L-121.84999999999995-43Q-121.84999999999995-40.5 -121.74999999999996-39.3L-121.74999999999996-39.3Q-118.54999999999995-43.3 -115.44999999999996-45.05Q-112.34999999999995-46.8 -108.84999999999995-46.8L-108.84999999999995-46.8Q-103.24999999999996-46.8 -99.69999999999996-42.3Q-96.14999999999995-37.8 -96.14999999999995-30.5L-96.14999999999995-30.5Q-96.14999999999995-25.2 -97.84999999999995-20.2Q-99.54999999999995-15.2 -102.54999999999995-11.1L-102.54999999999995-11.1Q-100.44999999999996-10.5 -99.04999999999995-10.5L-99.04999999999995-10.5Q-95.74999999999996-10.5 -92.74999999999996-12.9Q-89.74999999999996-15.3 -85.04999999999995-20.9L-85.04999999999995-20.9Q-83.84999999999995-22.3 -82.34999999999995-22.3L-82.34999999999995-22.3ZM-121.94999999999996-9.1Q-118.34999999999995-9.9 -115.29999999999995-13.05Q-112.24999999999996-16.2 -110.44999999999996-20.85Q-108.64999999999995-25.5 -108.64999999999995-30.6L-108.64999999999995-30.6Q-108.64999999999995-33.6 -109.84999999999995-35.15Q-111.04999999999995-36.7 -113.04999999999995-36.7L-113.04999999999995-36.7Q-116.64999999999995-36.7 -121.74999999999996-29.1L-121.74999999999996-29.1Q-121.84999999999995-24.7 -121.84999999999995-16.2L-121.84999999999995-16.2Q-121.84999999999995-11.6 -121.94999999999996-9.1L-121.94999999999996-9.1ZM-141.04999999999995 35.9Q-138.34999999999997 35.9 -136.54999999999995 24.15Q-134.74999999999994 12.4 -134.24999999999994-5.1L-134.24999999999994-5.1Q-138.54999999999995 4.9-141.04999999999995 14Q-143.54999999999995 23.1-143.54999999999995 29.3L-143.54999999999995 29.3Q-143.54999999999995 32.5-142.79999999999995 34.2Q-142.04999999999995 35.9-141.04999999999995 35.9L-141.04999999999995 35.9ZM-75.34999999999994 0.5Q-81.54999999999994 0.5 -85.24999999999994-4Q-88.94999999999995-8.5 -88.94999999999995-15.8L-88.94999999999995-15.8Q-88.94999999999995-23.8 -85.24999999999994-30.95Q-81.54999999999994-38.1 -75.39999999999995-42.45Q-69.24999999999994-46.8 -62.349999999999945-46.8L-62.349999999999945-46.8Q-60.14999999999995-46.8 -59.39999999999995-45.95Q-58.64999999999995-45.1 -58.14999999999995-42.9L-58.14999999999995-42.9Q-56.04999999999995-43.3 -53.74999999999994-43.3L-53.74999999999994-43.3Q-48.849999999999945-43.3 -48.849999999999945-39.8L-48.849999999999945-39.8Q-48.849999999999945-37.7 -50.349999999999945-29.8L-50.349999999999945-29.8Q-52.64999999999995-18.3 -52.64999999999995-13.8L-52.64999999999995-13.8Q-52.64999999999995-12.3 -51.89999999999995-11.4Q-51.14999999999995-10.5 -49.949999999999946-10.5L-49.949999999999946-10.5Q-48.04999999999995-10.5 -45.349999999999945-12.95Q-42.64999999999995-15.4 -38.04999999999995-20.9L-38.04999999999995-20.9Q-36.849999999999945-22.3 -35.349999999999945-22.3L-35.349999999999945-22.3Q-34.04999999999995-22.3 -33.29999999999995-21.1Q-32.54999999999995-19.9 -32.54999999999995-17.8L-32.54999999999995-17.8Q-32.54999999999995-13.8 -34.449999999999946-11.6L-34.449999999999946-11.6Q-38.54999999999995-6.5 -43.14999999999995-3Q-47.74999999999994 0.5 -52.04999999999995 0.5L-52.04999999999995 0.5Q-55.349999999999945 0.5 -58.099999999999945-1.75Q-60.849999999999945-4 -62.24999999999994-7.9L-62.24999999999994-7.9Q-67.44999999999995 0.5 -75.34999999999994 0.5L-75.34999999999994 0.5ZM-71.74999999999994-9.6Q-69.54999999999995-9.6 -67.54999999999995-12.2Q-65.54999999999995-14.8 -64.64999999999995-19.1L-64.64999999999995-19.1L-60.949999999999946-37.5Q-65.14999999999995-37.4 -68.69999999999995-34.35Q-72.24999999999994-31.3 -74.34999999999994-26.3Q-76.44999999999995-21.3 -76.44999999999995-15.7L-76.44999999999995-15.7Q-76.44999999999995-12.6 -75.19999999999995-11.1Q-73.94999999999995-9.6 -71.74999999999994-9.6L-71.74999999999994-9.6ZM-33.54999999999997 0.5Q-37.349999999999966 0.5 -38.89999999999997-3.5Q-40.44999999999997-7.5 -40.44999999999997-16.3L-40.44999999999997-16.3Q-40.44999999999997-29.3 -36.74999999999997-41L-36.74999999999997-41Q-35.849999999999966-43.9 -33.79999999999997-45.25Q-31.749999999999968-46.6 -28.04999999999997-46.6L-28.04999999999997-46.6Q-26.04999999999997-46.6 -25.249999999999968-46.1Q-24.449999999999967-45.6 -24.449999999999967-44.2L-24.449999999999967-44.2Q-24.449999999999967-42.6 -25.949999999999967-37L-25.949999999999967-37Q-26.949999999999967-33 -27.54999999999997-30Q-28.149999999999967-27 -28.54999999999997-22.6L-28.54999999999997-22.6Q-25.249999999999968-31.2 -21.149999999999967-36.6Q-17.04999999999997-42 -13.099999999999966-44.3Q-9.14999999999997-46.6 -5.849999999999966-46.6L-5.849999999999966-46.6Q 0.6500000000000341-46.6  0.6500000000000341-40.1L 0.6500000000000341-40.1Q 0.6500000000000341-36.2 -1.5499999999999687-26L-1.5499999999999687-26Q-3.4499999999999673-17.3 -3.4499999999999673-14.5L-3.4499999999999673-14.5Q-3.4499999999999673-10.5 -0.5499999999999687-10.5L-0.5499999999999687-10.5Q 1.4500000000000313-10.5  4.200000000000031-12.95Q 6.950000000000031-15.4  11.550000000000033-20.9L 11.550000000000033-20.9Q 12.750000000000036-22.3  14.250000000000036-22.3L 14.250000000000036-22.3Q 15.550000000000033-22.3  16.300000000000033-21.1Q 17.050000000000033-19.9  17.050000000000033-17.8L 17.050000000000033-17.8Q 17.050000000000033-13.8  15.150000000000034-11.6L 15.150000000000034-11.6Q 10.85000000000003-6.3  5.900000000000034-2.9Q 0.9500000000000313 0.5 -5.349999999999966 0.5L-5.349999999999966 0.5Q-10.449999999999967 0.5 -13.049999999999969-2.45Q-15.649999999999967-5.4 -15.649999999999967-11L-15.649999999999967-11Q-15.649999999999967-13.8 -14.249999999999968-21L-14.249999999999968-21Q-12.949999999999967-27.3 -12.949999999999967-29.7L-12.949999999999967-29.7Q-12.949999999999967-31.3 -14.049999999999969-31.3L-14.049999999999969-31.3Q-15.349999999999966-31.3 -17.699999999999967-27.95Q-20.04999999999997-24.6 -22.499999999999968-19.1Q-24.949999999999967-13.6 -26.449999999999967-7.5L-26.449999999999967-7.5Q-27.54999999999997-2.8 -28.999999999999968-1.15Q-30.449999999999967 0.5 -33.54999999999997 0.5L-33.54999999999997 0.5ZM 60.15000000000002-22.1Q 61.45000000000002-22.1  62.20000000000002-20.85Q 62.95000000000002-19.6  62.95000000000002-17.7L 62.95000000000002-17.7Q 62.95000000000002-15.4  62.250000000000014-14.1Q 61.55000000000001-12.8  60.05000000000001-11.8L 60.05000000000001-11.8L 40.85000000000002 1.1Q 37.05000000000001 21.8  30.900000000000016 33.65Q 24.750000000000018 45.5  15.250000000000016 45.5L 15.250000000000016 45.5Q 10.150000000000016 45.5  6.950000000000016 42.35Q 3.7500000000000164 39.2 3.7500000000000164 34.1L 3.7500000000000164 34.1Q 3.7500000000000164 29.4  5.900000000000016 24.5Q 8.050000000000017 19.6  13.900000000000016 13.25Q 19.750000000000014 6.9  30.450000000000017-1.3L 30.450000000000017-1.3L 30.750000000000018-3.6Q 31.450000000000017-7.3  32.350000000000016-14.2L 32.350000000000016-14.2Q 30.350000000000016-7  26.750000000000018-3.25Q 23.150000000000016 0.5  19.150000000000016 0.5L 19.150000000000016 0.5Q 14.650000000000016 0.5  11.800000000000017-3.65Q 8.950000000000017-7.8  8.950000000000017-14L 8.950000000000017-14Q 8.950000000000017-21.5  9.950000000000017-27.75Q 10.950000000000017-34  13.250000000000016-41L 13.250000000000016-41Q 14.250000000000016-44  16.05000000000002-45.3Q 17.850000000000016-46.6  21.750000000000018-46.6L 21.750000000000018-46.6Q 23.950000000000017-46.6  24.800000000000015-45.9Q 25.650000000000016-45.2  25.650000000000016-43.8L 25.650000000000016-43.8Q 25.650000000000016-43  24.550000000000015-38.4L 24.550000000000015-38.4Q 23.550000000000015-34.7  22.950000000000017-31.7L 22.950000000000017-31.7Q 22.150000000000016-27.6  21.550000000000015-23.85Q 20.950000000000017-20.1  20.950000000000017-17.7L 20.950000000000017-17.7Q 20.950000000000017-13.9  23.050000000000015-13.9L 23.050000000000015-13.9Q 24.550000000000015-13.9  26.800000000000015-16.9Q 29.050000000000015-19.9  31.600000000000016-26Q 34.15000000000002-32.1  36.55000000000001-41L 36.55000000000001-41Q 37.35000000000002-44  39.000000000000014-45.3Q 40.65000000000002-46.6  43.95000000000002-46.6L 43.95000000000002-46.6Q 46.250000000000014-46.6  47.15000000000002-46Q 48.05000000000001-45.4  48.05000000000001-44L 48.05000000000001-44Q 48.05000000000001-41.5  45.45000000000002-26.8L 45.45000000000002-26.8L 42.85000000000002-10.7Q 50.55000000000001-16.5  57.85000000000002-21.3L 57.85000000000002-21.3Q 59.15000000000002-22.1  60.15000000000002-22.1L 60.15000000000002-22.1ZM 16.350000000000016 35.8Q 18.850000000000016 35.8  21.950000000000017 30Q 25.050000000000015 24.2  28.150000000000016 10.7L 28.150000000000016 10.7Q 20.450000000000017 17.2  17.000000000000014 22.55Q 13.550000000000017 27.9  13.550000000000017 31.9L 13.550000000000017 31.9Q 13.550000000000017 33.6  14.200000000000017 34.7Q 14.850000000000016 35.8  16.350000000000016 35.8L 16.350000000000016 35.8ZM 101.75000000000003 0.5Q 98.05000000000003 0.5  96.45000000000002-1.15Q 94.85000000000002-2.8  94.85000000000002-7.4L 94.85000000000002-7.4Q 94.85000000000002-10.5  95.45000000000002-14.9Q 96.05000000000003-19.3  97.55000000000003-28.2L 97.55000000000003-28.2Q 97.75000000000003-29.4  99.15000000000003-37.95Q 100.55000000000003-46.5  101.65000000000003-55.9L 101.65000000000003-55.9Q 102.65000000000003-63.9  102.65000000000003-67.9L 102.65000000000003-67.9Q 102.65000000000003-72.4  99.35000000000002-72.4L 99.35000000000002-72.4Q 96.85000000000002-72.4  93.10000000000002-69.75Q 89.35000000000002-67.1  85.05000000000003-61.3L 85.05000000000003-61.3Q 83.65000000000002-59.4  81.95000000000003-59.4L 81.95000000000003-59.4Q 80.55000000000003-59.4  79.50000000000003-60.75Q 78.45000000000003-62.1 78.45000000000003-63.8L 78.45000000000003-63.8Q 78.45000000000003-65.5  79.05000000000003-67.05Q 79.65000000000002-68.6  81.25000000000003-70.8L 81.25000000000003-70.8Q 86.15000000000002-77.5  92.15000000000002-81.15Q 98.15000000000003-84.8  104.75000000000003-84.8L 104.75000000000003-84.8Q 110.25000000000003-84.8  113.00000000000003-81.4Q 115.75000000000003-78  115.75000000000003-71.5L 115.75000000000003-71.5Q 115.75000000000003-65.7  114.15000000000003-54.7L 114.15000000000003-54.7Q 119.15000000000003-69.5  126.85000000000002-77.15Q 134.55-84.8  144.95000000000005-84.8L 144.95000000000005-84.8Q 153.15000000000003-84.8  157.3-80.15Q 161.45000000000005-75.5  161.45000000000005-67.7L 161.45000000000005-67.7Q 161.45000000000005-63.3  160.15000000000003-57L 160.15000000000003-57L 154.05-28.4Q 153.05-23.4  153.05-19.8L 153.05-19.8Q 153.05-15.6  155.00000000000003-13.5Q 156.95000000000005-11.4  160.45000000000005-11.4L 160.45000000000005-11.4Q 163.75000000000003-11.4  166.90000000000003-13.6Q 170.05-15.8  174.35000000000002-20.9L 174.35000000000002-20.9Q 175.55-22.3  177.05-22.3L 177.05-22.3Q 178.35000000000002-22.3  179.10000000000002-21.1Q 179.85000000000002-19.9  179.85000000000002-17.8L 179.85000000000002-17.8Q 179.85000000000002-13.9  177.95000000000005-11.6L 177.95000000000005-11.6Q 172.75000000000003-5.3  167.65000000000003-2.4Q 162.55 0.5  156.95000000000005 0.5L 156.95000000000005 0.5Q 148.45000000000005 0.5  143.65000000000003-4.55Q 138.85000000000002-9.6  138.85000000000002-18.1L 138.85000000000002-18.1Q 138.85000000000002-21.4  139.40000000000003-25.3Q 139.95000000000002-29.2  141.25000000000003-35.2L 141.25000000000003-35.2L 145.25000000000003-53.5Q 145.45000000000005-54.4  145.95000000000005-56.7Q 146.45000000000005-59  146.75000000000003-61.05Q 147.05-63.1  147.05-65.1L 147.05-65.1Q 147.05-68.3  145.25000000000003-70.2Q 143.45000000000005-72.1  140.15000000000003-72.1L 140.15000000000003-72.1Q 134.15000000000003-72.1  128.15000000000003-65.7Q 122.15000000000003-59.3  117.05000000000003-45.05Q 111.95000000000002-30.8  109.05000000000003-8.6L 109.05000000000003-8.6Q 108.35000000000002-3.5  107.00000000000003-1.5Q 105.65000000000003 0.5  101.75000000000003 0.5L 101.75000000000003 0.5ZM 184.05000000000007 0.5Q 177.85000000000008 0.5  174.15000000000006-4Q 170.45000000000007-8.5  170.45000000000007-15.8L 170.45000000000007-15.8Q 170.45000000000007-23.8  174.15000000000006-30.95Q 177.85000000000008-38.1  184.00000000000009-42.45Q 190.15000000000006-46.8  197.05000000000007-46.8L 197.05000000000007-46.8Q 199.25000000000006-46.8  200.00000000000006-45.95Q 200.75000000000006-45.1  201.25000000000006-42.9L 201.25000000000006-42.9Q 203.35000000000008-43.3  205.6500000000001-43.3L 205.6500000000001-43.3Q 210.55000000000007-43.3  210.55000000000007-39.8L 210.55000000000007-39.8Q 210.55000000000007-37.7  209.05000000000007-29.8L 209.05000000000007-29.8Q 206.75000000000006-18.3  206.75000000000006-13.8L 206.75000000000006-13.8Q 206.75000000000006-12.3  207.50000000000006-11.4Q 208.25000000000006-10.5  209.45000000000007-10.5L 209.45000000000007-10.5Q 211.35000000000008-10.5  214.05000000000007-12.95Q 216.75000000000006-15.4  221.35000000000008-20.9L 221.35000000000008-20.9Q 222.55000000000007-22.3  224.05000000000007-22.3L 224.05000000000007-22.3Q 225.35000000000008-22.3  226.10000000000008-21.1Q 226.85000000000008-19.9  226.85000000000008-17.8L 226.85000000000008-17.8Q 226.85000000000008-13.8  224.95000000000007-11.6L 224.95000000000007-11.6Q 220.85000000000008-6.5  216.25000000000006-3Q 211.6500000000001 0.5  207.35000000000008 0.5L 207.35000000000008 0.5Q 204.05000000000007 0.5  201.30000000000007-1.75Q 198.55000000000007-4  197.15000000000006-7.9L 197.15000000000006-7.9Q 191.95000000000007 0.5  184.05000000000007 0.5L 184.05000000000007 0.5ZM 187.65000000000006-9.6Q 189.85000000000008-9.6  191.85000000000008-12.2Q 193.85000000000008-14.8  194.75000000000009-19.1L 194.75000000000009-19.1L 198.45000000000007-37.5Q 194.25000000000009-37.4  190.70000000000007-34.35Q 187.15000000000006-31.3  185.05000000000007-26.3Q 182.95000000000007-21.3  182.95000000000007-15.7L 182.95000000000007-15.7Q 182.95000000000007-12.6  184.20000000000007-11.1Q 185.45000000000007-9.6  187.65000000000006-9.6L 187.65000000000006-9.6ZM 225.8500000000001 0.5Q 222.0500000000001 0.5  220.5000000000001-3.5Q 218.9500000000001-7.5  218.9500000000001-16.3L 218.9500000000001-16.3Q 218.9500000000001-29.3  222.6500000000001-41L 222.6500000000001-41Q 223.5500000000001-43.9  225.6000000000001-45.25Q 227.6500000000001-46.6  231.3500000000001-46.6L 231.3500000000001-46.6Q 233.3500000000001-46.6  234.1500000000001-46.1Q 234.9500000000001-45.6  234.9500000000001-44.2L 234.9500000000001-44.2Q 234.9500000000001-42.6  233.4500000000001-37L 233.4500000000001-37Q 232.4500000000001-33  231.8500000000001-30.05Q 231.2500000000001-27.1  230.8500000000001-22.7L 230.8500000000001-22.7Q 233.5500000000001-30.5  237.3000000000001-35.9Q 241.0500000000001-41.3  245.0000000000001-43.95Q 248.9500000000001-46.6  252.4500000000001-46.6L 252.4500000000001-46.6Q 255.9500000000001-46.6  257.4000000000001-45Q 258.8500000000001-43.4  258.8500000000001-40.1L 258.8500000000001-40.1Q 258.8500000000001-36.9  256.9500000000001-28.5L 256.9500000000001-28.5Q 256.1500000000001-24.9  255.8500000000001-23.1L 255.8500000000001-23.1Q 260.8500000000001-35.4  266.9500000000001-41Q 273.0500000000001-46.6  278.35000000000014-46.6L 278.35000000000014-46.6Q 284.85000000000014-46.6  284.85000000000014-40.1L 284.85000000000014-40.1Q 284.85000000000014-36.2  282.6500000000001-26L 282.6500000000001-26Q 280.7500000000001-17.3  280.7500000000001-14.5L 280.7500000000001-14.5Q 280.7500000000001-10.5  283.6500000000001-10.5L 283.6500000000001-10.5Q 285.6500000000001-10.5  288.4000000000001-12.95Q 291.1500000000001-15.4  295.7500000000001-20.9L 295.7500000000001-20.9Q 296.9500000000001-22.3  298.4500000000001-22.3L 298.4500000000001-22.3Q 299.7500000000001-22.3  300.5000000000001-21.1Q 301.2500000000001-19.9  301.2500000000001-17.8L 301.2500000000001-17.8Q 301.2500000000001-13.8  299.35000000000014-11.6L 299.35000000000014-11.6Q 295.05000000000007-6.3  290.10000000000014-2.9Q 285.1500000000001 0.5  278.85000000000014 0.5L 278.85000000000014 0.5Q 273.7500000000001 0.5  271.1500000000001-2.45Q 268.5500000000001-5.4  268.5500000000001-11L 268.5500000000001-11Q 268.5500000000001-13.8  269.9500000000001-21L 269.9500000000001-21Q 271.2500000000001-27.3  271.2500000000001-29.7L 271.2500000000001-29.7Q 271.2500000000001-31.3  270.1500000000001-31.3L 270.1500000000001-31.3Q 268.8500000000001-31.3  266.4500000000001-27.95Q 264.0500000000001-24.6  261.6500000000001-19.1Q 259.2500000000001-13.6  257.7500000000001-7.5L 257.7500000000001-7.5Q 256.6500000000001-2.7  255.2000000000001-1.1Q 253.7500000000001 0.5  250.5500000000001 0.5L 250.5500000000001 0.5Q 247.2500000000001 0.5  245.6000000000001-2.65Q 243.9500000000001-5.8  243.9500000000001-10.3L 243.9500000000001-10.3Q 243.9500000000001-14.1  244.9500000000001-21.3L 244.9500000000001-21.3Q 245.7500000000001-27.7  245.7500000000001-29.7L 245.7500000000001-29.7Q 245.7500000000001-31.3  244.6500000000001-31.3L 244.6500000000001-31.3Q 243.1500000000001-31.3  240.8500000000001-27.7Q 238.5500000000001-24.1  236.4000000000001-18.5Q 234.2500000000001-12.9  232.9500000000001-7.5L 232.9500000000001-7.5Q 231.8500000000001-2.8  230.4000000000001-1.15Q 228.9500000000001 0.5  225.8500000000001 0.5L 225.8500000000001 0.5ZM 337.7500000000001-22.3Q 339.0500000000001-22.3  339.8000000000001-21.1Q 340.5500000000001-19.9  340.5500000000001-17.8L 340.5500000000001-17.8Q 340.5500000000001-13.8  338.65000000000015-11.6L 338.65000000000015-11.6Q 334.95000000000016-7.1  328.20000000000016-3.3Q 321.45000000000016 0.5  313.7500000000001 0.5L 313.7500000000001 0.5Q 303.2500000000001 0.5  297.45000000000016-5.2Q 291.65000000000015-10.9  291.65000000000015-20.8L 291.65000000000015-20.8Q 291.65000000000015-27.7  294.5500000000001-33.65Q 297.45000000000016-39.6  302.60000000000014-43.1Q 307.7500000000001-46.6  314.2500000000001-46.6L 314.2500000000001-46.6Q 320.0500000000001-46.6  323.5500000000001-43.15Q 327.0500000000001-39.7  327.0500000000001-33.8L 327.0500000000001-33.8Q 327.0500000000001-26.9  322.10000000000014-21.95Q 317.15000000000015-17  305.35000000000014-14.1L 305.35000000000014-14.1Q 307.85000000000014-9.5  314.85000000000014-9.5L 314.85000000000014-9.5Q 319.35000000000014-9.5  325.10000000000014-12.65Q 330.85000000000014-15.8  335.0500000000001-20.9L 335.0500000000001-20.9Q 336.2500000000001-22.3  337.7500000000001-22.3L 337.7500000000001-22.3ZM 312.5500000000001-36.8Q 308.85000000000014-36.8  306.3000000000001-32.5Q 303.7500000000001-28.2  303.7500000000001-22.1L 303.7500000000001-22.1L 303.7500000000001-21.9Q 309.65000000000015-23.3  313.0500000000001-26.1Q 316.45000000000016-28.9  316.45000000000016-32.6L 316.45000000000016-32.6Q 316.45000000000016-34.5  315.40000000000015-35.65Q 314.35000000000014-36.8  312.5500000000001-36.8L 312.5500000000001-36.8Z" data-textpath="Company Name" data-text-anchor="middle" data-font-size="100" data-letterspacing="0" data-side="left" data-offset="0" data-dx="0" data-dy="177" data-xmlspace="preserve" data-href="" data-font="Pacifico" data-font-src="/Content/clientfonts/pacifico.woff" data-font-scale="contain" transform="translate(341.5,177)" data-x="341.5" data-y="0" fill="url('#linearGradientSjrp0xo66u2')"></path></g></svg></g><g transform="matrix(5.9568,0,0,5.9568,141.5841,0.6271)"><svg width="29.999557456140593" height="29.999961311130594" viewBox="-0.999835507027413,-3.9929613111305935,29.999557456140593,29.999961311130594"><defs><linearGradient x1="0" y1="0.5" x2="1" y2="0.5" id="linearGradientSjrp0xo661e"><stop offset="0%" stop-color="#3d90e3"></stop><stop offset="100%" stop-color="#3d90e3"></stop></linearGradient></defs><g><path d="M12.5,21.006c-0.214,0-0.406-0.137-0.475-0.342l-1.921-5.763L4.342,12.98c-0.187-0.062-0.319-0.228-0.339-0.423   c-0.021-0.196,0.076-0.385,0.246-0.483l19-11c0.171-0.097,0.38-0.088,0.537,0.023c0.16,0.111,0.24,0.305,0.206,0.497l-3,17   c-0.026,0.15-0.12,0.28-0.255,0.353c-0.133,0.073-0.293,0.08-0.435,0.02l-6.434-2.757l-0.879,4.396   c-0.044,0.222-0.232,0.387-0.459,0.401C12.521,21.005,12.51,21.006,12.5,21.006z M5.711,12.382l4.947,1.649   c0.149,0.049,0.267,0.167,0.316,0.316l1.404,4.214l0.631-3.154c0.029-0.147,0.124-0.274,0.258-0.344   c0.133-0.071,0.291-0.077,0.43-0.017l6.42,2.751l2.704-15.321L5.711,12.382z" fill="url('#linearGradientSjrp0xo661e')"></path></g></svg></g><g transform="matrix(5.9568,0,0,5.9568,177.3244,1.6704)"><svg width="23.999614070073044" height="25.00017354865095" viewBox="4.999750000000001,-3.9941735486509504,23.999614070073044,25.00017354865095"><defs><linearGradient x1="0" y1="0.5" x2="1" y2="0.5" id="linearGradientSjrp0xo661k"><stop offset="0%" stop-color="#3d90e3"></stop><stop offset="100%" stop-color="#3d90e3"></stop></linearGradient></defs><g><path d="M13.5,16.006c-0.101,0-0.202-0.03-0.291-0.093c-0.225-0.16-0.276-0.473-0.116-0.697l6.489-9.084l-8.729,8.728   c-0.195,0.195-0.512,0.195-0.707,0s-0.195-0.512,0-0.707l13-13c0.185-0.185,0.478-0.197,0.677-0.028   c0.198,0.168,0.234,0.46,0.084,0.672l-10,14C13.81,15.933,13.655,16.006,13.5,16.006z" fill="url('#linearGradientSjrp0xo661k')"></path></g></svg></g><g transform="matrix(5.9568,0,0,5.9568,190.2381,92.0214)"><svg width="13.999797486780702" height="15.000056103866171" viewBox="6.9996012566096475,11.005943896133829,13.999797486780702,15.000056103866171"><defs><linearGradient x1="0" y1="0.5" x2="1" y2="0.5" id="linearGradientSjrp0xo661q"><stop offset="0%" stop-color="#3d90e3"></stop><stop offset="100%" stop-color="#3d90e3"></stop></linearGradient></defs><g><path d="M12.5,21.006c-0.104,0-0.21-0.033-0.3-0.1c-0.221-0.166-0.266-0.479-0.101-0.7l3-4c0.167-0.222,0.48-0.265,0.7-0.1   c0.221,0.166,0.266,0.479,0.101,0.7l-3,4C12.802,20.937,12.651,21.006,12.5,21.006z" fill="url('#linearGradientSjrp0xo661q')"></path></g></svg></g><g transform="matrix(1,0,0,1,213.5,120.5)"><svg width="11.72142384351086" height="11.692750000000004" viewBox="-4.99925,13.006249999999998,11.72142384351086,11.692750000000004"><defs><linearGradient x1="0" y1="0.5" x2="1" y2="0.5" id="linearGradientSjrp0xo661w"><stop offset="0%" stop-color="#3d90e3"></stop><stop offset="100%" stop-color="#3d90e3"></stop></linearGradient></defs><g><path d="M1.222,19.699c-0.121,0-0.242-0.043-0.339-0.132c-0.249-0.229-0.494-0.465-0.736-0.707c-0.195-0.195-0.195-0.512,0-0.707     c0.195-0.196,0.512-0.195,0.707-0.001c0.232,0.232,0.468,0.459,0.707,0.679c0.203,0.187,0.216,0.503,0.029,0.707     C1.491,19.644,1.356,19.699,1.222,19.699z" fill="url('#linearGradientSjrp0xo661w')"></path></g></svg></g><g transform="matrix(5.9568,0,0,5.9568,112.649,120.8275)"><svg width="16.19738913996708" height="12.78662004090722" viewBox="-2.4130569149022376,15.208379959092781,16.19738913996708,12.78662004090722"><defs><linearGradient x1="0" y1="0.5" x2="1" y2="0.5" id="linearGradientSjrp0xo6622"><stop offset="0%" stop-color="#3d90e3"></stop><stop offset="100%" stop-color="#3d90e3"></stop></linearGradient></defs><g><path d="M8.034,22.995c-0.472,0-0.956-0.05-1.438-0.149c-0.271-0.055-0.444-0.319-0.39-0.59c0.056-0.271,0.323-0.442,0.591-0.39     c0.416,0.085,0.832,0.128,1.237,0.128c0.002,0,0.004,0,0.006,0l0.225-0.004c0.325-0.018,0.509,0.206,0.519,0.481     S8.577,22.98,8.302,22.99l-0.261,0.005C8.039,22.995,8.036,22.995,8.034,22.995z M4.451,22.038c-0.078,0-0.156-0.018-0.23-0.056     c-0.466-0.242-0.943-0.533-1.419-0.863c-0.228-0.158-0.283-0.47-0.125-0.696c0.158-0.228,0.471-0.282,0.695-0.125     c0.44,0.307,0.881,0.575,1.31,0.797c0.245,0.127,0.341,0.429,0.213,0.674C4.806,21.94,4.632,22.038,4.451,22.038z" fill="url('#linearGradientSjrp0xo6622')"></path></g></svg></g><g transform="matrix(5.9568,0,0,5.9568,163.2809,123.8059)"><svg width="11.895925329802866" height="11.453448214193273" viewBox="5.104967310024046,16.005551785806727,11.895925329802866,11.453448214193273"><defs><linearGradient x1="0" y1="0.5" x2="1" y2="0.5" id="linearGradientSjrp0xo6628"><stop offset="0%" stop-color="#3d90e3"></stop><stop offset="100%" stop-color="#3d90e3"></stop></linearGradient></defs><g><path d="M10.605,22.459c-0.194,0-0.379-0.114-0.46-0.303c-0.108-0.254,0.01-0.548,0.264-0.657     c0.277-0.119,0.558-0.259,0.837-0.424c0.237-0.14,0.543-0.062,0.685,0.177c0.141,0.238,0.062,0.544-0.177,0.685     c-0.309,0.182-0.629,0.345-0.952,0.483C10.738,22.447,10.671,22.459,10.605,22.459z" fill="url('#linearGradientSjrp0xo6628')"></path></g></svg></g></g></svg>